<svg width="50" height="50" viewBox="0 0 50 50" fill="none" xmlns="http://www.w3.org/2000/svg">
<g clip-path="url(#clip0_1_3)">
<path d="M35.2109 50C32.0607 51.288 28.6137 52 25 52C21.3863 52 17.9393 51.288 14.7891 50H35.2109ZM0 35.2109C2.73885 41.9097 8.09034 47.2612 14.7891 50H0V35.2109ZM50 50H35.2109C41.9097 47.2612 47.2612 41.9097 50 35.2109V50ZM0 35.2109C-1.288 32.0607 -2 28.6137 -2 25C-2 21.386 -1.28821 17.9385 0 14.7881V35.2109ZM50 14.7881C51.2882 17.9385 52 21.386 52 25C52 28.6137 51.288 32.0607 50 35.2109V14.7881ZM14.7891 0C8.09062 2.73873 2.73895 8.08975 0 14.7881V0H14.7891ZM50 14.7881C47.2611 8.08975 41.9094 2.73873 35.2109 0H50V14.7881ZM25 -2C28.6137 -2 32.0607 -1.288 35.2109 0H14.7891C17.9393 -1.288 21.3863 -2 25 -2Z" fill="white"/>
<path d="M25 5L27.9234 17.9422L39.1421 10.8579L32.0578 22.0766L45 25L32.0578 27.9234L39.1421 39.1421L27.9234 32.0578L25 45L22.0766 32.0578L10.8579 39.1421L17.9422 27.9234L5 25L17.9422 22.0766L10.8579 10.8579L22.0766 17.9422L25 5Z" fill="white"/>
</g>
<defs>
<clipPath id="clip0_1_3">
<rect width="50" height="50" fill="white"/>
</clipPath>
</defs>
</svg>
